<?xml version="1.0" standalone="no"?>
<!DOCTYPE svg PUBLIC "-//W3C//DTD SVG 20010904//EN"
 "http://www.w3.org/TR/2001/REC-SVG-20010904/DTD/svg10.dtd">
<svg version="1.0" xmlns="http://www.w3.org/2000/svg"
 width="4500.000000pt" height="4500.000000pt" viewBox="0 0 4500.000000 4500.000000"
 preserveAspectRatio="xMidYMid meet">

<g transform="translate(0.000000,4500.000000) scale(0.100000,-0.100000)"
fill="#000000" stroke="none">
<path d="M8530 20615 c0 -745 2 -1355 5 -1355 3 0 3640 2220 4410 2692 29 17
-31 18 -2192 18 l-2223 0 0 -1355z"/>
<path d="M12633 19463 l-4103 -2506 0 -3084 c0 -1695 2 -3083 4 -3083 7 0
13941 8512 13952 8524 8 8 13 372 17 1334 l6 1322 -2887 0 -2887 0 -4102
-2507z"/>
<path d="M19085 14928 c-1881 -1149 -4189 -2560 -5129 -3134 l-1710 -1044
1635 0 1634 0 3492 2133 3492 2132 3 1000 c2 550 3 1001 3 1001 0 1 -1539
-939 -3420 -2088z"/>
<path d="M6653 9436 l-28 -24 -5 -2699 c-5 -2544 -7 -2702 -23 -2773 -95 -396
-319 -645 -665 -737 -85 -23 -117 -26 -257 -27 -190 -1 -285 19 -429 88 -261
124 -430 355 -502 686 -14 62 -18 162 -21 595 -3 302 -8 526 -14 537 -24 45
-53 49 -349 46 l-278 -3 -27 -25 -26 -25 3 -565 c4 -541 5 -570 27 -674 67
-323 197 -579 401 -790 129 -134 238 -213 405 -296 150 -75 304 -126 470 -156
144 -27 556 -27 700 0 522 96 907 371 1128 804 100 195 157 409 178 661 6 82
9 1036 7 2739 l-3 2614 -28 24 -28 24 -304 0 -304 0 -28 -24z"/>
<path d="M8658 8245 c-17 -10 -31 -29 -38 -53 -8 -26 -10 -630 -8 -2107 4
-2277 0 -2121 64 -2385 126 -516 458 -888 929 -1043 325 -108 755 -112 1073
-12 l82 26 0 389 0 388 -53 -52 c-151 -146 -334 -216 -569 -216 -413 0 -697
247 -800 697 l-22 98 -6 2117 -5 2117 -23 23 c-22 23 -26 23 -310 25 -239 2
-292 0 -314 -12z"/>
</g>
</svg>
